<?xml version="1.0" encoding="UTF-8" standalone="no"?>
<svg
   xmlns:dc="http://purl.org/dc/elements/1.1/"
   xmlns:cc="http://creativecommons.org/ns#"
   xmlns:rdf="http://www.w3.org/1999/02/22-rdf-syntax-ns#"
   xmlns:svg="http://www.w3.org/2000/svg"
   xmlns="http://www.w3.org/2000/svg"
   xmlns:sodipodi="http://sodipodi.sourceforge.net/DTD/sodipodi-0.dtd"
   xmlns:inkscape="http://www.inkscape.org/namespaces/inkscape"
   inkscape:version="1.0 (4035a4fb49, 2020-05-01)"
   inkscape:export-ydpi="2001.4397"
   inkscape:export-xdpi="2001.4397"
   inkscape:export-filename="D:\Alunos\Joana Paula Oliveira\PPGBIO\Disciplinas\Defesa de tese\Correções\logo-bioomiteca.png"
   sodipodi:docname="logo-bioomiteca.svg"
   id="svg20"
   version="1.1"
   viewBox="0 0 31.483 7.961"
   style="height:50px"
   class="cabecalho-sm-logo cabecalho__logo-position">
  <metadata
     id="metadata26">
    <rdf:RDF>
      <cc:Work
         rdf:about="">
        <dc:format>image/svg+xml</dc:format>
        <dc:type
           rdf:resource="http://purl.org/dc/dcmitype/StillImage" />
      </cc:Work>
    </rdf:RDF>
  </metadata>
  <defs
     id="defs24" />
  <sodipodi:namedview
     inkscape:current-layer="svg20"
     inkscape:window-maximized="1"
     inkscape:window-y="-9"
     inkscape:window-x="-9"
     inkscape:cy="3.9805"
     inkscape:cx="15.389454"
     inkscape:zoom="39.767494"
     showgrid="false"
     id="namedview22"
     inkscape:window-height="1051"
     inkscape:window-width="1920"
     inkscape:pageshadow="2"
     inkscape:pageopacity="0"
     guidetolerance="10"
     gridtolerance="10"
     objecttolerance="10"
     borderopacity="1"
     bordercolor="#666666"
     pagecolor="#ffffff" />
  <path
     id="path2"
     paint-order="stroke fill markers"
     d="M8.009 3.362a2.36 2.36 0 0 1-.058-.233 1.826 1.826 0 0 1-.043-.465c0-.292.019-.44.088-.678.045-.148.047-.15.08-.084.03.058.03.06-.009.214a2.445 2.445 0 0 0-.026 1.045c.04.182.04.177.01.217-.02.029-.024.026-.042-.019zm-.635 4.175-.053-.029.06-.106c.08-.145.816-1.418 1.154-2.003.16-.272.291-.484.318-.502a.823.823 0 0 0 .093-.08c.034-.037.042-.042.034-.018l-.034.113c-.011.045-.072.175-.135.289-.344.6-1.358 2.341-1.376 2.36-.003.005-.032-.005-.061-.024zm5.114-4.847a2.183 2.183 0 0 1-2.182 2.183 2.183 2.183 0 0 1-2.18-2.183 2.183 2.183 0 0 1 2.18-2.18 2.183 2.183 0 0 1 2.182 2.18zm-5.18 4.964c-.122-.072-.148-.12-.106-.199A168.4 168.4 0 0 1 8.729 4.82a.191.191 0 0 1 .076-.053c.053-.024.085-.093.072-.15a.473.473 0 0 0-.133-.141 2.445 2.445 0 0 1-.526-.635c-.066-.12-.069-.122-.042-.167.015-.024.031-.045.037-.045a2.368 2.368 0 0 0 .463.64 2.291 2.291 0 0 0 1.256.649c.186.029.55.029.736 0a2.291 2.291 0 0 0 1.913-2.535 2.305 2.305 0 0 0-1.873-1.99 2.26 2.26 0 0 0-1.998.612 2.135 2.135 0 0 0-.415.529l-.061.119-.035-.053-.031-.053.071-.12A2.463 2.463 0 0 1 9.51.392 1.971 1.971 0 0 1 10.3.266c.275 0 .344.006.484.037a2.387 2.387 0 0 1 1.244.694 2.397 2.397 0 0 1-2.593 3.889c-.233-.093-.257-.098-.307-.058-.034.026-.045.047-.053.11a.397.397 0 0 1-.032.117c-.182.331-1.513 2.62-1.531 2.636-.043.034-.101.023-.204-.035zm1.368-6.218.706.706M7.795 2.09l-.368-.643m-.042 2.345H6.107M6.08 1.44l-.638 1.106M9.104.88s1.16 1.059 1.16 1.768c0 .711-1.231 1.76-1.231 1.76M10.29.477a2.17 2.17 0 0 0-2.04 1.463c-.23-.415-.519-.873-.611-.926-.16-.09-1.686-.09-1.847 0-.159.093-.921 1.416-.921 1.6 0 .186.762 1.506.92 1.599.16.093 1.689.093 1.848 0 .09-.053.37-.492.597-.9A2.17 2.17 0 0 0 10.3 4.817a2.17 2.17 0 0 0 2.17-2.17A2.17 2.17 0 0 0 10.3.479a2.17 2.17 0 0 0-.01 0zm.008-.357A2.53 2.53 0 0 0 7.77 2.648a2.53 2.53 0 0 0 .981 2 .243.243 0 0 0-.153.116L7.083 7.39a.246.246 0 0 0 .09.333l.148.085a.245.245 0 0 0 .333-.087L9.17 5.092a.22.22 0 0 0 .027-.166 2.53 2.53 0 0 0 1.103.251 2.53 2.53 0 0 0 2.53-2.53A2.53 2.53 0 0 0 10.3.125z"
     stroke-width=".242"
     stroke-linejoin="round"
     stroke-linecap="round"
     stroke="#000"
     fill="none" />
  <g
     id="g6"
     style="line-height:1.25;-inkscape-font-specification:'OCR A Extended, Normal';font-variant-ligatures:normal;font-variant-caps:normal;font-variant-numeric:normal;font-variant-east-asian:normal">
    <path
       id="path4"
       style="-inkscape-font-specification:'OCR A Extended, Normal';font-variant-ligatures:normal;font-variant-caps:normal;font-variant-numeric:normal;font-variant-east-asian:normal"
       letter-spacing="0"
       font-weight="400"
       font-size="70.56"
       font-family="'OCR A Extended'"
       aria-label="bi"
       d="M.344 1.78v.815L.5 2.473q.143-.119.299-.119h.318q.174 0 .31.119l.163.143q.069.058.114.17.045.11.045.219v.701q0 .095-.042.198-.04.106-.096.157l-.15.142q-.056.053-.165.1-.105.043-.182.043H.82q-.217 0-.47-.24v.068q0 .072-.054.122-.047.053-.121.053-.072 0-.122-.053T0 4.174V1.78q0-.072.053-.122.05-.053.119-.053.074 0 .122.053.053.05.053.122zm.743.926H.85q-.087 0-.132.037l-.312.264q-.058.053-.058.162v.391q0 .088.068.146l.278.235q.058.053.125.053H1.1q.06 0 .103-.034l.137-.124q.056-.043.056-.12v-.724q0-.088-.053-.133l-.127-.106q-.058-.047-.13-.047zm2.146-1.252h.18q.072 0 .122.053.053.048.053.12v.15q0 .072-.053.125-.05.052-.122.052h-.185q-.074 0-.124-.052-.053-.053-.048-.122l.003-.154q0-.071.05-.119.053-.053.124-.053zm.704 2.89H2.884q-.071 0-.124-.053-.048-.05-.048-.122 0-.069.048-.122.053-.053.124-.053h.354v-1.29H2.89q-.074 0-.124-.054-.05-.05-.05-.119 0-.074.05-.124.053-.053.124-.053h.53q.068 0 .118.053.053.053.053.124v1.466h.344q.074 0 .125.053.053.048.053.119t-.05.124q-.054.05-.122.05z" />
  </g>
  <g
     id="g10"
     style="line-height:1.25;-inkscape-font-specification:'OCR A Extended, Normal';font-variant-ligatures:normal;font-variant-caps:normal;font-variant-numeric:normal;font-variant-east-asian:normal">
    <path
       id="path8"
       style="-inkscape-font-specification:'OCR A Extended, Normal';font-variant-ligatures:normal;font-variant-caps:normal;font-variant-numeric:normal;font-variant-east-asian:normal"
       letter-spacing="0"
       font-weight="400"
       font-size="70.56"
       font-family="'OCR A Extended'"
       aria-label="miteca"
       d="M13.938 4.174V2.531q0-.074.05-.121.053-.053.125-.053.132 0 .17.132.142-.135.32-.135.208 0 .343.177.164-.177.363-.177.159 0 .278.114.119.113.127.29l.05 1.416q0 .07-.053.122-.053.053-.122.053-.071 0-.121-.053-.053-.053-.053-.122l-.043-1.36q-.005-.11-.069-.11-.034 0-.07.031l-.207.172v1.267q0 .07-.053.12-.048.05-.122.05-.069 0-.122-.053-.05-.05-.05-.122V2.793q0-.09-.077-.09-.037 0-.068.027l-.25.211v1.233q0 .07-.05.122-.047.053-.118.053t-.125-.053q-.053-.053-.053-.122zm3.286-2.72h.18q.072 0 .122.053.053.048.053.12v.15q0 .072-.053.125-.05.052-.122.052h-.185q-.074 0-.127-.052-.048-.053-.048-.122l.006-.154q0-.071.05-.119.053-.053.122-.053zm.704 2.89H16.87q-.069 0-.122-.053-.048-.05-.048-.122 0-.069.048-.122.053-.053.124-.053h.355v-1.29h-.35q-.073 0-.124-.054-.05-.05-.05-.119 0-.074.05-.124.053-.053.125-.053h.526q.072 0 .122.053.053.053.053.124v1.466h.344q.074 0 .124.053.053.048.053.119t-.053.124q-.05.05-.119.05zm2.366.002h-.344q-.217 0-.37-.153-.157-.151-.157-.365V2.7h-.177q-.072 0-.122-.05-.05-.048-.05-.122t.05-.122q.053-.053.122-.053h.182v-.42q0-.072.05-.122.054-.053.122-.053.07 0 .122.053.053.052.053.121v.424h.696q.071 0 .122.053.052.052.052.121 0 .072-.052.122-.053.053-.122.053h-.701v1.122q0 .068.053.121.052.053.124.053h.339q.137 0 .185-.15.045-.151.174-.151.077 0 .122.053.053.047.053.124 0 .159-.15.315-.146.153-.376.153zm3.077-1.339v.421q0 .069-.053.122-.053.053-.122.053h-1.225V3.7q0 .09.08.15l.097.085q.085.064.159.064h.889q.071 0 .122.053.053.047.053.121 0 .07-.053.122-.053.053-.122.053h-.913q-.09 0-.19-.04t-.148-.08l-.154-.137q-.071-.058-.122-.158-.047-.106-.047-.191v-.794q0-.069.053-.185.053-.114.132-.177l.145-.114q.14-.116.315-.116h.487q.183 0 .344.153l.132.124q.14.125.14.373zm-1.395-.026v.27h1.05v-.244q0-.095-.058-.148l-.1-.087q-.08-.064-.14-.064h-.437q-.08 0-.145.053l-.1.088q-.07.053-.07.132zm3.773 1.365h-.74q-.196 0-.334-.116l-.336-.291q-.159-.138-.159-.365v-.45q-.01-.222.18-.386l.302-.262q.145-.12.315-.12h.775q.074 0 .122.054.053.047.053.121t-.053.122q-.048.053-.122.053h-.744q-.068 0-.132.053l-.28.238q-.066.058-.066.153v.424q0 .068.052.116l.305.26q.058.052.153.052h.71q.068 0 .121.05.053.048.053.122 0 .072-.053.122-.05.053-.122.053zm1.487-1.249h.68q.053 0 .159.027l-.003-.246q0-.074-.053-.122-.047-.053-.121-.053h-.657q-.07 0-.121-.053-.053-.05-.053-.119 0-.074.053-.121.05-.053.121-.053h.657q.214 0 .365.15.153.151.159.37l.045 1.297q0 .072-.053.122-.053.053-.122.053-.074 0-.124-.053-.053-.053-.053-.122l-.291.172h-.588q-.217 0-.37-.153-.154-.151-.154-.37V3.62q0-.217.154-.37t.37-.154zm.865.675-.008-.148q-.002-.074-.052-.122-.05-.05-.122-.05h-.683q-.071 0-.124.053-.048.048-.048.119v.196q0 .069.053.121.05.053.12.053h.489z" />
  </g>
  <path
     id="path12"
     paint-order="stroke fill markers"
     d="M6.292 4.14c-.318-.013-.376-.021-.429-.061-.164-.119-.847-1.304-.847-1.463 0-.111.495-1.013.736-1.342.085-.113.12-.142.19-.158.138-.027 1.522-.019 1.593.01.037.016.117.106.199.228l.132.2-.037.107a.328.328 0 0 1-.048.106c-.008 0-.068-.093-.137-.21-.14-.235-.172-.264-.265-.23-.047.016-.063.037-.069.098-.005.061.027.14.186.408l.19.33-.024.133c-.037.23-.005.76.059 1.008.031.119.074.254.095.301.034.088.034.09-.04.212-.04.069-.111.164-.153.212-.074.08-.088.084-.25.098-.298.023-.703.026-1.081.013zm1.19-.251c.035-.038.035-.16 0-.196-.02-.019-.211-.027-.727-.027-.62 0-.707.006-.741.037-.053.048-.053.117-.005.17.034.04.087.042.74.042.52 0 .715-.008.733-.026zm-1.91-1.302c.127-.204.648-1.125.648-1.149 0-.105-.158-.164-.232-.084-.085.095-.673 1.145-.673 1.201 0 .08.04.116.13.116.061 0 .082-.015.127-.084zm3.281 1.481c-.23-.238-.318-.375-.513-.833-.106-.238-.106-.746-.006-1.09.053-.188.212-.542.257-.569.01-.005.175.146.368.339.301.304.354.349.42.349.075 0 .143-.064.143-.132 0-.019-.169-.207-.378-.416l-.378-.383.156-.146.156-.145.09.084c.17.164.518.582.664.805.167.251.267.473.291.643.042.317-.238.785-.823 1.391a3.135 3.135 0 0 1-.275.265c-.008 0-.087-.072-.172-.162z"
     stroke-width=".342"
     stroke-linejoin="round"
     stroke-linecap="round"
     stroke="#000"
     fill="#55d400" />
  <path
     id="path14"
     paint-order="stroke fill markers"
     d="M9.906 4.65c-.246-.055-.635-.211-.635-.253 0-.011.087-.106.19-.212.487-.495.807-.953.9-1.289.124-.463-.132-1.013-.844-1.788L9.32.89l.158-.072a2.058 2.058 0 0 1 1.662.006 2.03 2.03 0 0 1 1.156 1.434 2.342 2.342 0 0 1-.047.979 2.053 2.053 0 0 1-1.419 1.378c-.22.064-.711.08-.923.035z"
     stroke-width=".342"
     stroke-linejoin="round"
     stroke-linecap="round"
     stroke="#000"
     fill="#59f" />
  <g
     id="g18"
     text-anchor="middle"
     style="line-height:1.25;-inkscape-font-specification:Arial;text-align:center">
    <path
       id="path16"
       letter-spacing="0"
       font-weight="400"
       font-size="8.86"
       font-family="OCR A Extended"
       aria-label="Mata Atlântica"
       stroke-width=".831"
       fill="#214b8b"
       style="-inkscape-font-specification:'OCR A Extended'"
       d="M12.509 6.21v-.048l-.2-.284v1.16q0 .04-.028.07-.028.027-.068.027-.04 0-.068-.03-.028-.028-.028-.067V5.613h.249l.237.345.243-.345h.244v1.425q0 .04-.03.07-.028.027-.068.027-.04 0-.068-.03-.028-.028-.028-.067V5.882l-.195.275v.054q0 .039-.029.067-.028.029-.067.029-.04 0-.069-.029-.027-.028-.027-.067zm1.314.23h.376q.031 0 .09.015l-.003-.137q0-.04-.028-.067-.028-.029-.068-.029h-.365q-.039 0-.068-.028-.028-.029-.028-.068 0-.04.027-.067.029-.03.069-.03h.365q.12 0 .203.085.084.083.088.204l.024.72q0 .04-.029.07-.028.027-.067.027-.041 0-.07-.028-.029-.029-.029-.069l-.162.097h-.325q-.122 0-.206-.085-.085-.085-.085-.206v-.112q0-.12.085-.205.086-.086.206-.086zm.48.375-.005-.081q-.001-.041-.029-.069-.027-.027-.067-.027h-.38q-.04 0-.068.028-.027.028-.027.068v.108q0 .038.028.067.029.029.068.029h.271zm1.324.32h-.193q-.119 0-.204-.085-.086-.085-.086-.204v-.624h-.099q-.04 0-.068-.027-.028-.028-.028-.069 0-.04.028-.067.028-.03.068-.03h.101v-.235q0-.04.027-.067.03-.029.07-.029.037 0 .066.029.03.028.03.067v.236h.386q.04 0 .068.029.028.028.028.067 0 .04-.028.069-.029.027-.068.027h-.389v.624q0 .039.029.068.03.028.07.028h.187q.077 0 .102-.082.025-.084.097-.084.043 0 .069.029.028.027.028.07 0 .087-.083.174-.081.086-.208.086zm1.025-.694h.377q.03 0 .09.014l-.003-.137q0-.04-.029-.067-.027-.029-.067-.029h-.365q-.04 0-.068-.028-.028-.029-.028-.068 0-.04.027-.067.029-.03.069-.03h.365q.119 0 .202.085.085.083.089.204l.024.72q0 .04-.029.07-.029.027-.068.027-.04 0-.07-.028-.028-.029-.028-.069l-.163.097h-.325q-.12 0-.206-.085-.084-.085-.084-.206v-.112q0-.12.084-.205.086-.086.206-.086zm.481.374-.006-.081q0-.041-.028-.069-.028-.027-.068-.027h-.379q-.04 0-.068.028-.028.028-.028.068v.108q0 .038.029.067.028.029.067.029h.272zm2.069.186.389-1.316q.023-.072.096-.072.07 0 .09.06l.383 1.337q.004.015.004.028 0 .04-.027.07-.028.027-.063.027-.076 0-.096-.07l-.078-.261h-.439l-.084.28q-.004.017-.029.035-.025.016-.055.016-.042 0-.07-.03-.027-.028-.027-.069 0-.017.006-.035zm.483-.942-.165.55h.324zm1.601 1.076h-.192q-.12 0-.205-.085-.086-.085-.086-.204v-.624h-.098q-.04 0-.07-.027-.027-.028-.027-.069 0-.04.028-.067.029-.03.069-.03h.1v-.235q0-.04.028-.067.028-.029.068-.029.038 0 .067.029.03.028.03.067v.236h.387q.038 0 .067.029.029.028.029.067 0 .04-.029.069-.029.027-.067.027h-.39v.624q0 .039.029.068.03.028.07.028h.188q.076 0 .101-.082.026-.084.098-.084.042 0 .068.029.028.027.028.07 0 .087-.083.174-.08.086-.208.086zm1.516 0h-.582q-.04 0-.069-.03-.027-.029-.027-.069 0-.039.027-.067.03-.029.07-.029h.191V5.806h-.194q-.04 0-.069-.028-.027-.029-.027-.069 0-.04.027-.067.029-.029.069-.029h.293q.039 0 .067.029.029.029.029.067V6.94h.195q.039 0 .067.029.029.028.029.067 0 .04-.029.07-.027.029-.067.029zm.925-.694h.376q.031 0 .09.014l-.003-.137q0-.04-.028-.067-.028-.029-.068-.029h-.365q-.04 0-.068-.028-.028-.029-.028-.068 0-.04.027-.067.029-.03.069-.03h.365q.119 0 .203.085.084.083.088.204l.024.72q0 .04-.029.07-.028.027-.067.027-.042 0-.07-.028-.029-.029-.029-.069l-.162.097h-.325q-.122 0-.207-.085-.084-.085-.084-.206v-.112q0-.12.084-.205.086-.086.207-.086zm.48.374-.005-.081q-.002-.041-.029-.069-.028-.027-.068-.027h-.378q-.04 0-.07.028-.027.028-.027.068v.108q0 .038.029.067.029.029.068.029h.27zm-.296-.998-.31.143q-.019.01-.04.01-.042 0-.07-.03-.025-.031-.025-.07 0-.061.053-.086l.35-.162q.024-.009.042-.009.023 0 .042.01l.35.16q.054.028.054.088 0 .038-.027.069-.027.03-.068.03-.02 0-.041-.01zm1.399.436-.262.17v.615q0 .04-.03.068-.028.029-.067.029-.039 0-.067-.03-.029-.028-.029-.067v-.912q0-.04.028-.069.028-.03.068-.03.04 0 .068.03.029.029.029.07v.063l.175-.106q.088-.056.199-.056h.09q.114 0 .197.08.084.082.088.201l.027.73q0 .038-.028.067-.028.029-.069.029-.037 0-.066-.026-.029-.026-.03-.07l-.028-.718q-.004-.101-.106-.101h-.093q-.044 0-.094.033zm1.635.882h-.192q-.119 0-.205-.085t-.086-.204v-.624h-.098q-.04 0-.069-.027-.027-.028-.027-.069 0-.04.027-.067.029-.03.069-.03h.1v-.235q0-.04.028-.067.029-.029.069-.029.038 0 .066.029.03.028.03.067v.236h.387q.039 0 .067.029.029.028.029.067 0 .04-.029.069-.028.027-.067.027h-.39v.624q0 .039.03.068.029.028.07.028h.187q.077 0 .102-.082.025-.084.097-.084.042 0 .069.029.027.027.027.07 0 .087-.082.174-.082.086-.209.086zm1.124-1.606h.101q.04 0 .068.028.028.028.028.068v.082q0 .04-.028.07-.028.029-.068.029h-.103q-.041 0-.07-.03-.027-.03-.026-.067l.002-.084q0-.04.028-.068.028-.028.069-.028zm.392 1.603h-.586q-.04 0-.069-.027-.027-.029-.027-.069 0-.039.027-.067.029-.029.069-.029h.197v-.718h-.195q-.04 0-.069-.028-.027-.029-.027-.068 0-.04.027-.069.03-.03.07-.03h.292q.04 0 .068.03.028.029.028.07v.813h.193q.04 0 .068.029.03.027.03.067 0 .04-.029.069-.028.027-.067.027zm1.513.003h-.41q-.11 0-.186-.066l-.187-.162q-.089-.075-.089-.202v-.25q-.005-.123.1-.213l.169-.146q.081-.066.174-.066h.432q.04 0 .067.029.029.027.029.067 0 .041-.029.069-.027.027-.067.027h-.414q-.039 0-.074.031l-.155.132q-.037.032-.037.086v.234q0 .038.03.064l.169.145q.032.028.084.028h.394q.04 0 .068.029.028.027.028.067 0 .04-.028.07-.028.027-.068.027zm.827-.694h.376q.031 0 .09.014l-.003-.137q0-.04-.028-.067-.028-.029-.068-.029h-.365q-.039 0-.068-.028-.028-.029-.028-.068 0-.04.027-.067.029-.03.069-.03h.365q.12 0 .203.085.084.083.088.204l.024.72q0 .04-.029.07-.028.027-.067.027-.042 0-.07-.028-.029-.029-.029-.069l-.162.097H30.8q-.122 0-.206-.085-.085-.085-.085-.206v-.112q0-.12.085-.205.085-.086.206-.086zm.48.374-.005-.081q-.001-.041-.029-.069-.027-.027-.067-.027h-.38q-.04 0-.068.028-.027.028-.027.068v.108q0 .038.028.067.029.029.068.029h.271z" />
  </g>
</svg>
