<svg viewBox="0 0 6.35 6.17" class="w-20">
  <g stroke="#000" stroke-linecap="round" stroke-linejoin="round" paint-order="stroke fill markers">
    <path fill="none" stroke-width=".189" d="M2.52 2.6a1.94 1.94 0 0 1 0-1.06c.03-.12.03-.12.06-.07.02.05.02.05-.01.17a1.9 1.9 0 0 0-.02.8c.03.15.03.14 0 .17-.01.03-.01.03-.03 0zm-.49 3.24L2 5.8l.05-.08a276.48 276.48 0 0 1 1.14-1.94.73.73 0 0 0 .07-.06c.03-.03.03-.03.03-.01l-.03.08c0 .04-.06.14-.1.23L2.07 5.85l-.05-.01zM6 2.08a1.69 1.69 0 0 1-1.69 1.7 1.69 1.69 0 0 1-1.69-1.7A1.69 1.69 0 0 1 4.31.4a1.69 1.69 0 0 1 1.68 1.7zM2 5.92c-.1-.05-.12-.09-.1-.15.06-.1 1.17-2.02 1.2-2.04a.2.2 0 0 1 .05-.04c.04-.02.07-.07.05-.12a.36.36 0 0 0-.1-.1 1.9 1.9 0 0 1-.4-.5c-.06-.09-.06-.1-.04-.13l.03-.03.04.06a1.83 1.83 0 0 0 1.3.94 1.77 1.77 0 1 0-1.27-2.62l-.05.09-.03-.04-.02-.04.05-.1c.22-.36.58-.66.99-.8.21-.08.33-.1.6-.1a1.85 1.85 0 0 1 1.34.56 1.86 1.86 0 0 1-2 3.01c-.18-.06-.2-.07-.24-.04-.03.02-.04.04-.04.09a136.7 136.7 0 0 1-1.21 2.13c-.03.03-.08.02-.16-.03zm1.05-4.8.55.54m-1.23-.04-.29-.5m-.03 1.81h-.99m-.02-1.82-.5.86M3.38.68s.9.82.9 1.37c0 .55-.95 1.36-.95 1.36M4.29.37A1.68 1.68 0 0 0 2.71 1.5c-.18-.32-.4-.67-.47-.71A4.79 4.79 0 0 0 .8.79C.68.86.09 1.89.09 2.03c0 .14.6 1.16.72 1.23.12.07 1.3.07 1.43 0 .07-.04.28-.38.46-.7a1.68 1.68 0 0 0 1.6 1.17 1.68 1.68 0 0 0 1.68-1.68A1.68 1.68 0 0 0 4.3.37a1.68 1.68 0 0 0-.01 0zm0-.28a1.96 1.96 0 0 0-1.95 1.96A1.96 1.96 0 0 0 3.1 3.6a.19.19 0 0 0-.12.09L1.81 5.72c-.05.1-.02.2.07.26l.11.07c.1.05.2.02.26-.07l1.17-2.04a.19.19 0 0 0 .03-.13 1.96 1.96 0 0 0 .85.2 1.96 1.96 0 0 0 1.96-1.96A1.96 1.96 0 0 0 4.3.1a1.96 1.96 0 0 0 0 0z"/>
    <path fill="#55d400" stroke-width=".267" d="M1.2 3.2c-.25 0-.3-.01-.34-.04a4.62 4.62 0 0 1-.65-1.14c0-.08.38-.78.57-1.03C.84.89.87.88.92.86 1.03.84 2.1.85 2.16.87c.03.01.09.08.15.18l.1.15-.02.08a.26.26 0 0 1-.04.09l-.1-.16c-.12-.19-.14-.2-.21-.18-.04 0-.05.03-.06.07 0 .05.03.11.15.32l.14.25-.01.1a2.6 2.6 0 0 0 .11 1.02c.03.07.03.07-.03.16-.03.06-.08.13-.12.17-.05.06-.06.06-.19.07a7.8 7.8 0 0 1-.84.01zm.92-.2c.02-.02.02-.11 0-.14a2.65 2.65 0 0 0-.57-.02c-.48 0-.54 0-.57.03-.04.03-.04.09 0 .13.02.03.06.03.57.03.4 0 .55 0 .57-.02zM.64 2l.5-.89c0-.08-.13-.12-.18-.06a8.8 8.8 0 0 0-.52.93c0 .06.03.09.1.09.05 0 .06-.01.1-.07zm2.54 1.15a1.73 1.73 0 0 1-.4-.65 1.52 1.52 0 0 1 .2-1.28l.28.26c.24.24.28.27.33.27.05 0 .1-.05.1-.1 0-.02-.13-.16-.29-.32l-.3-.3.13-.11.12-.12.07.07c.13.13.4.45.52.62.13.2.2.37.22.5.03.25-.18.61-.64 1.08l-.2.2c-.02 0-.08-.05-.14-.12z"/>
    <path fill="#59f" stroke-width=".267" d="M4 3.6c-.2-.04-.5-.16-.5-.2l.15-.16c.38-.38.62-.74.7-1 .1-.36-.1-.78-.66-1.38L3.54.69l.12-.06a1.57 1.57 0 0 1 2.18 1.11c.05.22.03.57-.03.76-.18.54-.57.92-1.1 1.07-.17.05-.55.07-.72.03z"/>
  </g>
</svg>
