<?xml version="1.0" encoding="UTF-8" standalone="no"?>
<svg
   xmlns:dc="http://purl.org/dc/elements/1.1/"
   xmlns:cc="http://creativecommons.org/ns#"
   xmlns:rdf="http://www.w3.org/1999/02/22-rdf-syntax-ns#"
   xmlns:svg="http://www.w3.org/2000/svg"
   xmlns="http://www.w3.org/2000/svg"
   xmlns:sodipodi="http://sodipodi.sourceforge.net/DTD/sodipodi-0.dtd"
   xmlns:inkscape="http://www.inkscape.org/namespaces/inkscape"
   inkscape:version="1.0 (4035a4fb49, 2020-05-01)"
   sodipodi:docname="vanillin.svg"
   id="svg8"
   version="1.1"
   viewBox="0 0 24.000001 24.000001"
   height="24mm"
   width="24mm">
  <defs
     id="defs2" />
  <sodipodi:namedview
     scale-x="1"
     inkscape:window-maximized="1"
     inkscape:window-y="-9"
     inkscape:window-x="-9"
     inkscape:window-height="1001"
     inkscape:window-width="1920"
     showgrid="false"
     inkscape:document-rotation="0"
     inkscape:current-layer="layer1"
     inkscape:document-units="mm"
     inkscape:cy="30.70397"
     inkscape:cx="13.001348"
     inkscape:zoom="5.6"
     inkscape:pageshadow="2"
     inkscape:pageopacity="0.0"
     borderopacity="1.0"
     bordercolor="#666666"
     pagecolor="#ffffff"
     id="base" />
  <metadata
     id="metadata5">
    <rdf:RDF>
      <cc:Work
         rdf:about="">
        <dc:format>image/svg+xml</dc:format>
        <dc:type
           rdf:resource="http://purl.org/dc/dcmitype/StillImage" />
        <dc:title></dc:title>
      </cc:Work>
    </rdf:RDF>
  </metadata>
  <g
     id="layer1"
     inkscape:groupmode="layer"
     inkscape:label="Layer 1">
    <path
       id="path847"
       d="m 14.404643,22.04907 c -0.503642,-0.127679 -0.812722,-0.596083 -0.778982,-1.180503 0.02055,-0.356315 0.107339,-0.575553 0.307136,-0.776147 0.203502,-0.204295 0.429489,-0.293169 0.743163,-0.292264 0.210423,6.02e-4 0.31548,0.02314 0.484859,0.104008 0.372336,0.177699 0.602421,0.631011 0.567036,1.117146 -0.03703,0.508645 -0.263146,0.83965 -0.676886,0.990916 -0.178032,0.06513 -0.469468,0.08172 -0.646338,0.0369 z m 0.543337,-0.265608 c 0.05943,-0.02055 0.144603,-0.07702 0.215797,-0.142957 0.198823,-0.184076 0.280207,-0.429069 0.259814,-0.782114 -0.01883,-0.326849 -0.128681,-0.555039 -0.331824,-0.689601 -0.287994,-0.190774 -0.675027,-0.157902 -0.932204,0.07911 -0.17552,0.161788 -0.248063,0.40267 -0.231322,0.768099 0.0156,0.338944 0.109319,0.535908 0.325942,0.684165 0.196247,0.13435 0.456383,0.165565 0.693797,0.0832 z M 3.6313888,19.655736 C 2.4219949,18.961944 1.4072963,18.375813 1.3764997,18.353222 l -0.056089,-0.04111 V 15.72628 13.14042 l 0.045811,-0.04247 c 0.025135,-0.02341 1.0215732,-0.607313 2.2141682,-1.297708 l 2.1684192,-1.255262 0.00512,-2.3187302 c 0.00491,-2.2472045 0.00406,-2.3176874 -0.032194,-2.2849546 -0.020554,0.018573 -0.056337,0.033801 -0.079614,0.033801 -0.061164,0 -2.7100851,-1.5438022 -2.7478759,-1.6014766 -0.02823,-0.043088 -0.027982,-0.052622 0.0021,-0.098557 0.018325,-0.027982 0.052498,-0.050888 0.076022,-0.050888 0.040612,0 2.6751186,1.5169331 2.7523643,1.5848482 0.035658,0.031326 0.036896,0.025259 0.03182,-0.1534687 -0.00341,-0.1158909 0.00341,-0.1965564 0.017458,-0.213779 0.012627,-0.015106 0.079118,-0.059308 0.1477856,-0.097937 0.068717,-0.038629 0.112795,-0.073918 0.097937,-0.078499 -0.084065,-0.025878 -3.1006835,-1.8106539 -3.1262339,-1.8496518 -0.027488,-0.04185 -0.027115,-0.052003 0.00277,-0.097567 0.018325,-0.028107 0.052868,-0.050887 0.077012,-0.050887 0.02402,0 0.7436947,0.4099391 1.5992999,0.9109566 1.3804023,0.8083387 1.5569055,0.9172834 1.5668701,0.9671065 0.00619,0.03083 0.015353,0.056212 0.020306,0.056212 0.00491,0 0.5965282,-0.3401569 1.3145327,-0.755903 C 8.627403,3.7779206 8.785844,3.691832 8.8319021,3.7079156 c 0.06463,0.022535 0.083204,0.1271822 0.030459,0.1719047 -0.018564,0.015848 -0.676493,0.4012102 -1.461875,0.8563665 L 5.9725164,5.563754 5.9673964,8.0472502 c -0.00406,1.9714928 1.026e-4,2.4877208 0.020306,2.5039908 0.06463,0.05188 4.2640286,2.4766 4.2909846,2.477606 0.01684,6.26e-4 0.661803,-0.369192 1.433365,-0.821835 1.366782,-0.801826 1.404185,-0.822218 1.455752,-0.793407 0.065,0.0364 0.07949,0.119731 0.02848,0.163845 -0.02005,0.01733 -0.627542,0.377388 -1.349819,0.799981 -0.722282,0.422602 -1.347596,0.790531 -1.389588,0.817635 l -0.07639,0.04928 v 2.480448 2.480449 l 1.389582,0.799512 c 0.764275,0.439728 1.405615,0.81365 1.425212,0.830947 0.05164,0.04557 0.04458,0.1201 -0.01497,0.159177 -0.04742,0.03096 -0.0556,0.03058 -0.127258,-0.0066 -0.0421,-0.02203 -0.683049,-0.389312 -1.424269,-0.816275 l -1.347468,-0.776405 -2.2013667,1.261989 c -1.210751,0.694096 -2.2122386,1.261475 -2.2255289,1.260844 -0.01322,-6.3e-4 -1.0136697,-0.568795 -2.2230637,-1.262587 z M 8.0388786,19.433261 10.177181,18.20767 10.176967,15.720588 10.176755,13.233505 8.0348659,11.991534 C 6.8568267,11.308447 5.8775751,10.749563 5.858749,10.749563 c -0.018819,0 -0.9972679,0.558764 -2.1743314,1.241705 l -2.1401041,1.241706 0.00512,2.491156 0.00512,2.491154 2.1378171,1.228541 c 1.1757969,0.675696 2.1536307,1.225497 2.1729609,1.221782 0.019439,-0.0037 0.9973793,-0.55827 2.1734474,-1.232344 z m -2.2892898,0.509748 c -0.085556,-0.09459 -0.1182433,-0.07293 1.8407601,-1.218217 1.0191584,-0.59581 1.870113,-1.083295 1.8910068,-1.083295 0.058069,0 0.1123006,0.07119 0.097937,0.128508 -0.00979,0.03925 -0.3730546,0.259542 -1.8642008,1.130803 -1.018589,0.595154 -1.8694061,1.082106 -1.8907085,1.082106 -0.02142,0 -0.054974,-0.01796 -0.074783,-0.03986 z M 2.2049781,17.917988 c -0.038629,-0.02823 -0.039621,-0.07726 -0.044821,-2.171508 -0.00471,-1.898977 -0.00178,-2.148042 0.025878,-2.190363 0.039744,-0.0608 0.1414834,-0.06561 0.17214,-0.0083 0.014116,0.02649 0.021173,0.745082 0.021173,2.185565 0,2.053326 -0.00161,2.147637 -0.037268,2.179875 -0.045688,0.04136 -0.085185,0.04271 -0.1370262,0.0049 z m 7.0962217,-4.232059 c -0.7361124,-0.42133 -3.5013274,-2.045696 -3.5370863,-2.077778 -0.025134,-0.02253 -0.045811,-0.0572 -0.045811,-0.07676 0,-0.04928 0.054974,-0.0998 0.1083381,-0.0993 0.024392,2.09e-4 0.8735273,0.485107 1.8869494,1.07755 1.9564343,1.143717 1.9299998,1.126198 1.8431522,1.222155 -0.052745,0.05819 -0.083327,0.05287 -0.2555541,-0.04582 z m 6.8455812,6.333622 c -0.04458,-0.04458 -0.0286,-0.13273 0.03156,-0.17463 0.167832,-0.116754 1.429954,-0.839303 1.466098,-0.839303 0.05212,0 0.106735,0.05114 0.106735,0.100048 0,0.01981 -0.01833,0.05287 -0.04099,0.07317 -0.07528,0.06822 -1.454297,0.865097 -1.496938,0.865097 -0.02316,0 -0.05299,-0.01103 -0.06648,-0.0244 z m 6.735146,-0.10734 c -0.167471,-0.05435 -0.297503,-0.197955 -0.334498,-0.369452 -0.01174,-0.05485 -0.0072,-0.06525 0.03318,-0.07601 0.121583,-0.03257 0.148899,-0.01895 0.197483,0.0983 0.09324,0.224997 0.351241,0.276492 0.523281,0.104495 0.133745,-0.133735 0.136493,-0.329968 0.0066,-0.46926 -0.07591,-0.08135 -0.07887,-0.08246 -0.220887,-0.08246 -0.142387,0 -0.143972,-5.92e-4 -0.144009,-0.05435 0,-0.09125 0.02005,-0.118733 0.08729,-0.118733 0.03442,0 0.100783,-0.01846 0.147511,-0.04111 0.242171,-0.117252 0.180832,-0.457435 -0.08704,-0.483177 -0.15748,-0.01511 -0.283722,0.0738 -0.32218,0.227102 -0.01362,0.05448 -0.0177,0.05608 -0.108217,0.04271 -0.05174,-0.0077 -0.0977,-0.01745 -0.102028,-0.02179 -0.01833,-0.01796 0.06872,-0.201695 0.127424,-0.268566 0.08606,-0.09807 0.200136,-0.146375 0.346535,-0.14692 0.224117,-8.4e-4 0.388233,0.08877 0.462658,0.252607 0.07478,0.164736 0.02464,0.382279 -0.105122,0.456135 -0.03281,0.0187 -0.05956,0.03851 -0.05931,0.04419 2.23e-4,0.0056 0.03727,0.02724 0.08246,0.04804 0.161839,0.07466 0.241601,0.298852 0.183333,0.515267 -0.02971,0.110198 -0.180559,0.277433 -0.289738,0.321128 -0.119973,0.04804 -0.313774,0.05806 -0.424687,0.02203 z m -3.987425,-0.428824 c -0.07107,-0.01547 -0.167942,-0.0468 -0.215327,-0.06971 -0.307086,-0.148653 -0.509648,-0.515194 -0.534868,-0.9679 -0.04062,-0.730224 0.369526,-1.210279 1.03502,-1.211183 0.309834,-4.26e-4 0.554629,0.1076 0.709818,0.313215 0.08877,0.11762 0.172227,0.296883 0.14817,0.318303 -0.0182,0.01609 -0.191592,0.06041 -0.236388,0.06041 -0.01622,0 -0.05299,-0.04828 -0.08185,-0.107352 -0.06252,-0.127769 -0.153891,-0.225826 -0.266786,-0.286261 -0.11775,-0.06302 -0.445871,-0.06315 -0.583836,-1.02e-4 -0.27846,0.127104 -0.424068,0.409394 -0.424773,0.823543 -7.42e-4,0.433452 0.1263,0.702303 0.392482,0.830575 0.165156,0.07961 0.316804,0.09682 0.480922,0.05485 0.250577,-0.06413 0.379716,-0.200692 0.476885,-0.504077 0.01,-0.03132 0.02068,-0.03119 0.149594,0.0015 0.161765,0.04099 0.163474,0.04778 0.06686,0.261038 -0.181153,0.399651 -0.621649,0.590337 -1.115907,0.483076 z m 1.564562,-1.108899 v -1.099454 h 0.142512 0.142523 v 0.447926 0.447926 h 0.580271 0.580272 V 17.72296 17.275034 h 0.14251 0.142511 v 1.099454 1.099451 h -0.142511 -0.14251 v -0.51918 -0.519193 H 21.32437 20.744099 v 0.519193 0.51918 h -0.142523 -0.142512 z m -6.08556,-6.567878 c -0.54408,-0.146312 -0.849595,-0.73026 -0.725184,-1.386109 0.104862,-0.5525868 0.562602,-0.9022527 1.119523,-0.855104 0.268393,0.022657 0.484302,0.1223292 0.653693,0.301638 0.218335,0.231101 0.30321,0.467105 0.302765,0.841819 -2.12e-4,0.176362 -0.01043,0.278002 -0.03703,0.365415 -0.11775,0.388382 -0.365491,0.638477 -0.728144,0.73499 -0.139144,0.03702 -0.443221,0.03565 -0.585646,-0.0026 z m 0.645856,-0.293033 c 0.27472,-0.14698 0.410137,-0.412699 0.410137,-0.804734 0,-0.488525 -0.229727,-0.8129825 -0.626578,-0.8849439 -0.300511,-0.05448 -0.627333,0.0915 -0.76306,0.3408629 -0.08766,0.161121 -0.121583,0.346707 -0.112414,0.615658 0.0072,0.209631 0.01449,0.248559 0.0702,0.367446 0.148145,0.316606 0.366753,0.452407 0.709571,0.440805 0.162916,-0.0055 0.197523,-0.01387 0.312039,-0.07516 z m 1.117392,0.292155 c -0.0078,-0.0079 -0.01424,-0.507629 -0.01424,-1.11046 V 9.5992122 h 0.152701 0.152701 v 0.4581028 0.458104 h 0.570082 0.570081 V 10.057315 9.5992122 h 0.142511 0.142511 v 1.1105588 1.110559 l -0.137435,-0.006 -0.137435,-0.006 -0.0053,-0.52427 -0.0053,-0.52427 h -0.569439 -0.5694 l -0.0053,0.52427 -0.0053,0.52427 -0.133201,0.0059 c -0.0733,0.0032 -0.139688,-5.61e-4 -0.147624,-0.0085 z M 1.1393989,4.1715474 C 0.97395738,4.1269739 0.83532165,4.0445502 0.69780027,3.9087376 0.49211886,3.7056191 0.38448647,3.4221819 0.38459792,3.0839686 0.38478362,2.4703662 0.71503532,2.032185 1.244654,1.9428648 1.8162213,1.846463 2.3066525,2.1622651 2.4541285,2.7216983 c 0.041602,0.1578642 0.046183,0.5117894 0.00871,0.6676849 -0.096823,0.4022502 -0.3626171,0.6849694 -0.7377765,0.7848261 -0.1391433,0.037021 -0.4432205,0.035658 -0.585645,-0.00256 z M 1.6587781,3.9293529 C 1.9744445,3.8356249 2.1622965,3.5648414 2.1896472,3.1641761 2.225925,2.6320563 1.9875936,2.2620104 1.5606176,2.1876596 1.1505794,2.1162183 0.79201113,2.370757 0.70941412,2.7918519 c -0.0376397,0.191678 -0.0173341,0.5598296 0.0386303,0.7034178 0.0496498,0.1271704 0.18739401,0.2942589 0.30000378,0.3638552 0.1607242,0.0993 0.4144707,0.1285077 0.6107176,0.070203 z M 9.3831382,3.07378 V 1.9641511 h 0.1421273 0.1421273 l 0.00555,0.4530143 0.00555,0.4530144 0.5751702,0.00535 0.575182,0.00535 V 2.4224276 1.964005 h 0.142515 0.142511 V 3.0736351 4.1832652 H 10.971358 10.828847 V 3.6535845 3.1239041 l -0.575183,0.00535 -0.5751825,0.00535 -0.00535,0.5242698 -0.00535,0.52427 H 9.5256307 9.3834539 Z"
       style="fill:#000000;stroke-width:0.22;stroke:#000000;stroke-opacity:1;stroke-miterlimit:4;stroke-dasharray:none;stroke-linecap:round;stroke-linejoin:round" />
  </g>
</svg>
