<?xml version="1.0" encoding="UTF-8" standalone="no"?>
<svg
   xmlns:dc="http://purl.org/dc/elements/1.1/"
   xmlns:cc="http://creativecommons.org/ns#"
   xmlns:rdf="http://www.w3.org/1999/02/22-rdf-syntax-ns#"
   xmlns:svg="http://www.w3.org/2000/svg"
   xmlns="http://www.w3.org/2000/svg"
   xmlns:sodipodi="http://sodipodi.sourceforge.net/DTD/sodipodi-0.dtd"
   xmlns:inkscape="http://www.inkscape.org/namespaces/inkscape"
   sodipodi:docname="mini_logo.svg"
   inkscape:version="1.0 (4035a4fb49, 2020-05-01)"
   id="svg1646"
   version="1.1"
   viewBox="0 0 6.35 6.1651659"
   height="6.1651659mm"
   width="6.3499999mm">
  <defs
     id="defs1640" />
  <sodipodi:namedview
     inkscape:window-maximized="1"
     inkscape:window-y="-9"
     inkscape:window-x="-9"
     inkscape:window-height="1001"
     inkscape:window-width="1920"
     fit-margin-bottom="0"
     fit-margin-right="0"
     fit-margin-left="0"
     fit-margin-top="0"
     showgrid="false"
     inkscape:document-rotation="0"
     inkscape:current-layer="layer1"
     inkscape:document-units="mm"
     inkscape:cy="14.392336"
     inkscape:cx="15.960433"
     inkscape:zoom="15.839192"
     inkscape:pageshadow="2"
     inkscape:pageopacity="0.0"
     borderopacity="1.0"
     bordercolor="#666666"
     pagecolor="#ffffff"
     id="base" />
  <metadata
     id="metadata1643">
    <rdf:RDF>
      <cc:Work
         rdf:about="">
        <dc:format>image/svg+xml</dc:format>
        <dc:type
           rdf:resource="http://purl.org/dc/dcmitype/StillImage" />
        <dc:title></dc:title>
      </cc:Work>
    </rdf:RDF>
  </metadata>
  <g
     transform="translate(-98.275672,-39.083482)"
     id="layer1"
     inkscape:groupmode="layer"
     inkscape:label="Layer 1">
    <g
       id="g1625"
       transform="matrix(0.5553905,0,0,0.5553905,93.848647,38.407362)">
      <path
         d="m 12.516598,5.8999775 c -0.01451,-0.036789 -0.05145,-0.1822723 -0.08208,-0.3232954 -0.04667,-0.2148554 -0.05607,-0.3196399 -0.05799,-0.6465925 -0.0024,-0.4079208 0.02396,-0.612406 0.122183,-0.9475924 0.06044,-0.2062562 0.0633,-0.2092385 0.111236,-0.1158079 0.04071,0.07936 0.04054,0.083163 -0.01367,0.2987625 -0.116069,0.4615982 -0.129277,1.0099249 -0.03507,1.4558221 0.05366,0.2539913 0.0534,0.2480567 0.01356,0.302313 -0.03055,0.041607 -0.0328,0.040694 -0.05817,-0.023609 z m -0.8861,5.8250505 -0.07304,-0.04395 0.08259,-0.148108 c 0.11131,-0.199607 1.135674,-1.9743541 1.610482,-2.7902174 0.221606,-0.3807868 0.408159,-0.6765169 0.443047,-0.7023328 0.03314,-0.024526 0.08985,-0.074693 0.126006,-0.1114816 0.04851,-0.049354 0.06115,-0.055199 0.04824,-0.022296 -0.0096,0.024526 -0.02977,0.095603 -0.04475,0.1579496 -0.01498,0.062346 -0.101099,0.2429463 -0.191366,0.401333 -0.476994,0.83696 -1.890348,3.2654012 -1.914411,3.2893642 -0.0076,0.0075 -0.04661,-0.0061 -0.08679,-0.03026 z m 7.12631,-6.7581266 a 3.0416858,3.0416858 0 0 1 -3.041686,3.0416864 3.0416858,3.0416858 0 0 1 -3.041686,-3.0416864 3.0416858,3.0416858 0 0 1 3.041686,-3.0416863 3.0416858,3.0416858 0 0 1 3.041686,3.0416863 z m -7.218962,6.9172616 c -0.171043,-0.09696 -0.206484,-0.162748 -0.149079,-0.276717 0.0932,-0.185036 2.089747,-3.6298063 2.129486,-3.6741387 0.02385,-0.026605 0.07161,-0.060075 0.106135,-0.074375 0.0741,-0.030692 0.119636,-0.1256942 0.09923,-0.2070053 C 13.7149,7.6171979 13.642794,7.5391879 13.543472,7.4570318 13.272401,7.2328098 12.993182,6.8967307 12.80802,6.5718144 12.713093,6.4052373 12.7122,6.4017185 12.749043,6.3393469 c 0.02058,-0.034832 0.04328,-0.063331 0.05046,-0.063331 0.0072,0 0.03599,0.047658 0.06404,0.1059073 0.112684,0.2340517 0.350508,0.5559039 0.58137,0.7867814 0.481837,0.4818707 1.087712,0.7941785 1.75108,0.9026227 0.257123,0.042033 0.767603,0.042108 1.026294,1.668e-4 1.015291,-0.1646742 1.886168,-0.8026975 2.34698,-1.7194428 0.114094,-0.2269808 0.219278,-0.5249834 0.274728,-0.7783508 0.0565,-0.2581508 0.07832,-0.7594722 0.04526,-1.0397833 -0.164136,-1.3917444 -1.228383,-2.522666 -2.611891,-2.7755328 -0.289728,-0.052954 -0.853237,-0.053342 -1.125963,-7.509e-4 -0.66077,0.1273628 -1.191623,0.40012 -1.660652,0.8532608 C 13.23988,2.8532649 13.059343,3.085619 12.915706,3.350985 l -0.08821,0.16297 -0.04528,-0.07152 -0.04528,-0.07152 0.09928,-0.1679286 c 0.38679,-0.6542306 1.044782,-1.1923455 1.771597,-1.4488412 0.389593,-0.1374886 0.607752,-0.1714632 1.101002,-0.1714632 0.385406,0 0.477336,0.00703 0.677372,0.05182 0.691765,0.1548855 1.249887,0.4660154 1.731736,0.9653689 1.19111,1.2343821 1.255116,3.1350911 0.150256,4.461912 -0.907993,1.0904025 -2.480467,1.4923644 -3.767758,0.9631282 -0.31998,-0.1315514 -0.352608,-0.1380442 -0.424559,-0.084486 -0.0482,0.035881 -0.06417,0.069529 -0.07356,0.1550398 -0.0066,0.060067 -0.02582,0.134296 -0.04273,0.1649537 -0.254653,0.4619035 -2.110945,3.6530324 -2.136779,3.6733114 -0.05856,0.04597 -0.142094,0.03144 -0.284938,-0.04953 z m 1.908116,-8.6653684 0.98415,0.984149 M 12.220165,4.1258904 11.70453,3.2327846 M 11.643084,6.501425 H 9.8635849 M 9.8265803,3.2241086 8.9368306,4.7652001 M 14.042341,2.4414508 c 0,0 1.616439,1.4756198 1.61648,2.4637389 4.5e-5,0.9933738 -1.716814,2.4525919 -1.716814,2.4525919 m 1.75365,-5.4708858 a 3.0246419,3.0246419 0 0 0 -2.844295,2.0371506 c -0.32151,-0.5783879 -0.724738,-1.2143215 -0.852409,-1.2880327 -0.222821,-0.1286467 -2.3500975,-0.1286467 -2.5729189,0 -0.2228223,0.1286466 -1.286482,1.9709206 -1.286482,2.228213 0,0.2572932 1.0636597,2.0995682 1.286482,2.2282148 0.2228214,0.1286457 2.3500979,0.1286457 2.5729189,0 0.125026,-0.072184 0.514717,-0.6838456 0.832751,-1.2523388 a 3.0246419,3.0246419 0 0 0 2.878567,2.0960402 3.0246419,3.0246419 0 0 0 3.024623,-3.024624 3.0246419,3.0246419 0 0 0 -3.024623,-3.0246231 3.0246419,3.0246419 0 0 0 -0.01461,0 z m 0.01254,-0.5009786 a 3.525603,3.525603 0 0 0 -3.523532,3.5256017 3.525603,3.525603 0 0 0 1.368605,2.7888137 c -0.08703,0.021144 -0.165603,0.076322 -0.214126,0.160368 l -2.113197,3.6601474 c -0.09417,0.163098 -0.03864,0.370213 0.124458,0.464378 l 0.20684,0.119414 c 0.163099,0.09417 0.370214,0.03868 0.464379,-0.124415 l 2.113197,-3.6601469 c 0.04287,-0.074258 0.05439,-0.1575592 0.03919,-0.2352497 a 3.525603,3.525603 0 0 0 1.536258,0.352293 3.525603,3.525603 0 0 0 3.525602,-3.5256025 3.525603,3.525603 0 0 0 -3.525602,-3.5256017 3.525603,3.525603 0 0 0 -0.0021,0 z"
         style="fill:none;stroke:#000000;stroke-width:0.337078;stroke-linecap:round;stroke-linejoin:round;stroke-miterlimit:4;stroke-dasharray:none;paint-order:stroke fill markers"
         id="path1617" />
      <path
         id="path1619"
         d="M 10.122338,6.9862405 C 9.6767421,6.9688917 9.5967564,6.9578033 9.523236,6.9031852 9.2964541,6.7347109 8.3426607,5.0847988 8.3426607,4.8609768 c 0,-0.1546395 0.6917239,-1.411439 1.0279699,-1.8677279 C 9.4882623,2.8336215 9.5365097,2.7932121 9.6341644,2.772527 9.8269608,2.731689 11.757205,2.743956 11.856648,2.78665 c 0.05102,0.021903 0.160255,0.1485044 0.273639,0.3171319 l 0.188726,0.2806746 -0.05267,0.1464673 c -0.02897,0.080557 -0.06009,0.1464673 -0.06916,0.1464673 -0.0091,0 -0.09431,-0.1301411 -0.189438,-0.2892026 -0.197131,-0.3296358 -0.241158,-0.3683467 -0.368361,-0.3238856 -0.0695,0.024293 -0.09055,0.053514 -0.09856,0.1368105 -0.0082,0.085524 0.04117,0.1948487 0.256483,0.5677449 l 0.266663,0.4618246 -0.03088,0.1884466 c -0.052,0.3173131 -0.0089,1.0566712 0.08182,1.4024171 0.04321,0.1647532 0.101553,0.3542666 0.12965,0.4211409 0.05076,0.1208115 0.05042,0.1226958 -0.05321,0.2944891 -0.05736,0.095095 -0.153961,0.226864 -0.21466,0.2928201 -0.104473,0.1135223 -0.122977,0.1208865 -0.346849,0.1380397 -0.417247,0.03197 -0.979521,0.038759 -1.507502,0.018204 z m 1.658855,-0.3511754 c 0.04888,-0.048877 0.04888,-0.2222957 0,-0.2711728 -0.0278,-0.0278 -0.296898,-0.037838 -1.014415,-0.037838 -0.8644654,0 -0.9831962,0.00599 -1.0342396,0.052185 -0.07171,0.064897 -0.07394,0.1613517 -0.00548,0.2370008 0.048428,0.053512 0.1228858,0.057663 1.0342406,0.057663 0.721778,0 0.992083,-0.010028 1.019894,-0.037838 z M 9.1178703,4.8204157 C 9.2955814,4.5380561 10.021724,3.2539523 10.021724,3.2220492 c 0,-0.1477952 -0.2242031,-0.2311009 -0.3232587,-0.1201111 -0.1191911,0.1335511 -0.9380096,1.5964208 -0.9380096,1.675812 0,0.1130189 0.053375,0.1609094 0.1793352,0.1609094 0.085532,0 0.1166728,-0.020677 0.1780794,-0.1182438 z"
         style="fill:#55d400;stroke:#000000;stroke-width:0.4767;stroke-linecap:round;stroke-linejoin:round;stroke-miterlimit:4;stroke-dasharray:none;paint-order:stroke fill markers" />
      <path
         id="path1621"
         d="M 13.690566,6.885742 C 13.369527,6.552471 13.252635,6.3627753 12.976508,5.7269521 c -0.14492,-0.3337009 -0.148715,-1.0404014 -0.0082,-1.5224086 0.07613,-0.2610924 0.299451,-0.7551428 0.357584,-0.7910708 0.01462,-0.00904 0.245409,0.2027273 0.512855,0.470591 0.425253,0.4259184 0.498946,0.4870253 0.587336,0.4870253 0.103243,0 0.199243,-0.089727 0.199243,-0.1862233 0,-0.025336 -0.23767,-0.2858549 -0.528156,-0.5789319 l -0.52813,-0.5328675 0.21795,-0.2037534 0.217949,-0.2037537 0.125077,0.1196529 c 0.237118,0.226835 0.723246,0.8141243 0.927085,1.1200076 0.233891,0.3509798 0.374236,0.6615039 0.405481,0.8971592 0.05847,0.4409602 -0.329977,1.0974905 -1.148692,1.9414705 -0.197673,0.2037736 -0.369239,0.3704974 -0.381258,0.3704974 -0.01202,0 -0.120948,-0.1028721 -0.242066,-0.2286048 z"
         style="fill:#55d400;stroke:#000000;stroke-width:0.4767;stroke-linecap:round;stroke-linejoin:round;stroke-miterlimit:4;stroke-dasharray:none;paint-order:stroke fill markers" />
      <path
         id="path1623"
         d="M 15.161391,7.69812 C 14.81859,7.6210949 14.278503,7.4038854 14.278503,7.3430443 c 0,-0.012372 0.11872,-0.1433834 0.263821,-0.2911371 0.678664,-0.6910677 1.12408,-1.3313539 1.250735,-1.7979306 C 15.968832,4.606458 15.607816,3.838812 14.619778,2.7591768 L 14.342167,2.4558301 14.566001,2.3557457 c 0.719044,-0.3215103 1.604466,-0.3176898 2.313671,0.00998 0.842127,0.3890866 1.43118,1.1185396 1.612924,1.997365 0.07775,0.3759684 0.04635,1.0121297 -0.06733,1.3638583 -0.311304,0.9631935 -1.01583,1.6493878 -1.976546,1.9251158 -0.306815,0.088056 -0.991392,0.1125461 -1.287325,0.046052 z"
         style="fill:#5599ff;stroke:#000000;stroke-width:0.4767;stroke-linecap:round;stroke-linejoin:round;stroke-miterlimit:4;stroke-dasharray:none;paint-order:stroke fill markers" />
    </g>
  </g>
</svg>
